# xmcd
#
# Track frame offsets: 
#        150
#        26625
#        53009
#        69684
#        95785
#        121379
#        152278
#        161832
#        183261
#        209199
#        237756
#
# Disc length: 3597 seconds
#
# Revision: 0
# Processed by: cddbd v1.5.1PL0 Copyright (c) Steve Scherf et al.
# Submitted via: ExactAudioCopy v0.95a4
#
DISCID=970e0b0b
DTITLE=Goatfoxes - Tightrope
DYEAR=1900
DGENRE=
TTITLE0=The understatesman
TTITLE1=Jenny
TTITLE2=Kolle
TTITLE3=Buskin´
TTITLE4=Gudlac
TTITLE5=Generation X
TTITLE6=Goatfoxes
TTITLE7=One Day
TTITLE8=Queenstown
TTITLE9=Beside her
TTITLE10=Jiockey ful of Bourbon
EXTD=
EXTT0=
EXTT1=
EXTT2=
EXTT3=
EXTT4=
EXTT5=
EXTT6=
EXTT7=
EXTT8=
EXTT9=
EXTT10=
PLAYORDER=
